<svg xmlns="http://www.w3.org/2000/svg" xmlns:xlink="http://www.w3.org/1999/xlink" viewBox="0 0 199.53 108.49"><defs><style>.cls-1{fill:#933b81;}.cls-2{fill:url(#Zebras_Gradient);}</style><linearGradient id="Zebras_Gradient" x1="139.03" y1="94.6" x2="52.33" y2="7.89" gradientUnits="userSpaceOnUse"><stop offset="0" stop-color="#e85f25"/><stop offset="0.27" stop-color="#b24761"/><stop offset="0.5" stop-color="#863392"/><stop offset="0.58" stop-color="#7c429c"/><stop offset="0.75" stop-color="#646bb7"/><stop offset="0.98" stop-color="#3cace1"/><stop offset="1" stop-color="#37b3e6"/></linearGradient></defs><g id="Layer_2" data-name="Layer 2"><g id="Layer_1-2" data-name="Layer 1"><path class="cls-1" d="M121.68,33.94h.19l6,6.55,5.87-6.55h.22V46.16h-2.41V41.63c0-.82.09-2.12.09-2.12s-.73,1.07-1.29,1.71L127.9,43.9h-.23l-2.4-2.68a21.11,21.11,0,0,1-1.3-1.71s.09,1.3.09,2.12v4.53h-2.38Z"/><path class="cls-1" d="M137.61,34.07h8v2.18H140.1V39H145v2.13H140.1V44h5.76v2.19h-8.25Z"/><path class="cls-1" d="M149.33,33.94h.2l6,6.55,5.87-6.55h.21V46.16h-2.4V41.63c0-.82.09-2.12.09-2.12a21.11,21.11,0,0,1-1.3,1.71l-2.4,2.68h-.23l-2.4-2.68a21.11,21.11,0,0,1-1.3-1.71s.09,1.3.09,2.12v4.53h-2.39Z"/><path class="cls-1" d="M165.26,34.07h4.61c2.45,0,3.7,1.4,3.7,3.23a2.48,2.48,0,0,1-1.85,2.48,2.77,2.77,0,0,1,2.36,2.91c0,2-1.44,3.47-3.93,3.47h-4.89Zm4.31,4.78c1,0,1.54-.48,1.54-1.3s-.44-1.3-1.42-1.3h-1.94v2.6Zm.48,5.12a1.44,1.44,0,0,0,1.53-1.51A1.49,1.49,0,0,0,169.9,41h-2.15v3Z"/><path class="cls-1" d="M177.19,34.07h8v2.18h-5.51V39h4.85v2.13h-4.85V44h5.76v2.19h-8.25Z"/><path class="cls-1" d="M190.15,34.07h4.49c2.47,0,4.5,1.15,4.5,4a3.56,3.56,0,0,1-2.37,3.54l2.76,4.57h-2.85L194.23,42h-1.58v4.2h-2.5Zm4.42,5.8c1.22,0,2-.48,2-1.82s-.82-1.8-2-1.8h-1.92v3.62Z"/><path d="M17.23,88.34v-7.8h2.64V88.2c0,1.77.82,2.46,2.58,2.46S25,90,25,88.2V80.54h2.65v7.8c0,3.09-2.25,4.58-5.18,4.58S17.23,91.43,17.23,88.34Z"/><path d="M36,87.08a17.32,17.32,0,0,1-1.54-1.67,20.44,20.44,0,0,1,.19,2.23v5.12H32.15V80.43h.26l6.49,5.79a18.52,18.52,0,0,1,1.51,1.67s-.17-1.38-.17-2.23V80.54h2.48V92.87h-.27Z"/><path d="M47.35,80.54H50V92.76H47.35Z"/><path d="M57.54,82.75H53.87V80.54h10v2.21H60.19v10H57.54Z"/><path d="M67.69,80.54H76.2v2.21H70.34v2.8H75.5v2.16H70.34v2.84h6.13v2.21H67.69Z"/><path class="cls-2" d="M66.22,55.5A14.51,14.51,0,0,1,51.72,41V14.5a14.5,14.5,0,0,1,29,0H78.21a12,12,0,1,0-24,0V41a12,12,0,1,0,24,0h2.51A14.51,14.51,0,0,1,66.22,55.5ZM74.93,41H72.42A6.2,6.2,0,0,1,60,41V14.5a6.2,6.2,0,0,1,12.4,0h2.51a8.71,8.71,0,0,0-17.42,0V41a8.71,8.71,0,0,0,17.42,0Zm38.26,0V14.5a14.51,14.51,0,0,0-29,0V41a14.51,14.51,0,0,0,29,0Zm-2.52-26.5V41a12,12,0,1,1-24,0V14.5a12,12,0,1,1,24,0ZM107.39,41V14.5A8.71,8.71,0,1,0,90,14.5V41a8.71,8.71,0,1,0,17.42,0ZM104.88,14.5V41a6.2,6.2,0,1,1-12.4,0V14.5a6.2,6.2,0,0,1,12.4,0ZM113.19,94V67.49a14.51,14.51,0,0,0-29,0V94a14.51,14.51,0,0,0,29,0Zm-2.52-26.5V94a12,12,0,0,1-24,0V67.49a12,12,0,1,1,24,0ZM107.39,94V67.49a8.71,8.71,0,1,0-17.42,0V94a8.71,8.71,0,0,0,17.42,0Zm-2.51-26.53V94a6.2,6.2,0,0,1-12.4,0V67.49a6.2,6.2,0,0,1,12.4,0Zm14.63-10.67H133a12,12,0,1,1,0,24h-4.47v2.51H133a14.5,14.5,0,0,0,0-29H117v53.8h2.51Zm6,5.79H133A6.2,6.2,0,0,1,133,75h-4.47v2.51H133a8.71,8.71,0,1,0,0-17.42H123v48h2.51Z"/><path d="M0,75.13l5.9-9.79H1V63.13h9v.21L4.1,73.13H9.66v2.21H0Z"/><path d="M13.88,63.13h8.51v2.21H16.53v2.8h5.16v2.15H16.53v2.84h6.12v2.21H13.88Z"/><path d="M27,63.13h4.9c2.61,0,3.93,1.41,3.93,3.27a2.5,2.5,0,0,1-2,2.49,2.85,2.85,0,0,1,2.51,3c0,2-1.53,3.5-4.18,3.5H27ZM31.58,68c1.08,0,1.64-.49,1.64-1.31s-.47-1.31-1.51-1.31H29.65V68Zm.51,5.17a1.49,1.49,0,0,0,1.62-1.52c0-.9-.68-1.51-1.77-1.51H29.65v3Z"/><path d="M40.33,63.13H45.1c2.63,0,4.78,1.16,4.78,4a3.61,3.61,0,0,1-2.51,3.58l2.93,4.61h-3L44.66,71.1H43v4.24H40.33ZM45,69c1.31,0,2.14-.48,2.14-1.83s-.87-1.81-2.14-1.81H43V69Z"/><path d="M58.73,63H59l5.88,12.32H62.06l-.72-1.65h-5l-.72,1.65H53.08Zm1.66,8.57-.81-1.85a19.81,19.81,0,0,1-.77-2.18c0,.06-.4,1.33-.76,2.18l-.81,1.85Z"/><path d="M67.26,72.94l2.15-1.19A2.91,2.91,0,0,0,72,73.28c1.1,0,1.8-.52,1.8-1.24,0-.87-.72-1.17-1.93-1.67l-.66-.27c-1.91-.78-3.18-1.75-3.18-3.79S69.56,63,71.93,63a4,4,0,0,1,3.76,2l-2.06,1.26a1.81,1.81,0,0,0-1.7-1.08,1.13,1.13,0,0,0-1.27,1.08c0,.76.49,1.06,1.63,1.53l.66.27c2.25.91,3.52,1.85,3.52,4,0,2.27-1.87,3.5-4.39,3.5A5.13,5.13,0,0,1,67.26,72.94Z"/></g></g></svg>